<svg xmlns="http://www.w3.org/2000/svg" xmlns:xlink="http://www.w3.org/1999/xlink" aria-hidden="true" role="img" class="iconify iconify--logos" width="31.88" height="32" preserveAspectRatio="xMidYMid meet" viewBox="0 0 256 257"><defs><linearGradient id="IconifyId1813088fe1fbc01fb466" x1="-.828%" x2="57.636%" y1="7.652%" y2="78.411%"><stop offset="0%" stop-color="#41D1FF"></stop><stop offset="100%" stop-color="#BD34FE"></stop></linearGradient><linearGradient id="IconifyId1813088fe1fbc01fb467" x1="43.376%" x2="50.316%" y1="2.242%" y2="89.03%"><stop offset="0%" stop-color="#FFEA83"></stop><stop offset="8.333%" stop-color="#FFDD35"></stop><stop offset="100%" stop-color="#FFA800"></stop></linearGradient></defs><path fill="url(#IconifyId1813088fe1fbc01fb466)" d="M255.153 37.938L134.897 252.976c-2.483 4.44-8.862 4.466-11.382.048L.875 37.958c-2.746-4.814 1.371-10.646 6.827-9.67l120.385 21.517a6.537 6.537 0 0 0 2.322-.004l117.867-21.483c5.438-.991 9.574 4.796 6.877 9.62Z"></path><path fill="url(#IconifyId1813088fe1fbc01fb467)" d="M185.432.063L96.44 17.501a3.268 3.268 0 0 0-2.634 3.014l-5.474 92.456a3.268 3.268 0 0 0 3.997 3.378l24.777-5.718c2.318-.535 4.413 1.507 3.936 3.838l-7.361 36.047c-.495 2.426 1.782 4.5 4.151 3.78l15.304-4.649c2.372-.72 4.652 1.36 4.15 3.788l-11.698 56.621c-.732 3.542 3.979 5.473 5.943 2.437l1.313-2.028l72.516-144.72c1.215-2.423-.88-5.186-3.54-4.672l-25.505 4.922c-2.396.462-4.435-1.77-3.759-4.114l16.646-57.705c.677-2.35-1.37-4.583-3.769-4.113Z"></path></svg<svg xmlns="http://www.w3.org/2000/svg" width="0.92em" height="1em" viewBox="0 0 256 279" {...props}><defs><linearGradient id="logosWindiCss0" x1="16.639%" x2="137.275%" y1="36.186%" y2="175.371%"><stop offset="7.822%" stopColor="#54c8f1"></stop><stop offset="57.292%" stopColor="#41a2ef"></stop><stop offset="100%" stopColor="#3386ee"></stop></linearGradient><linearGradient id="logosWindiCss1" x1="-22.099%" x2="91.451%" y1="-49.621%" y2="73.695%"><stop offset="7.822%" stopColor="#54c8f1"></stop><stop offset="57.292%" stopColor="#41a2ef"></stop><stop offset="100%" stopColor="#3386ee"></stop></linearGradient><linearGradient id="logosWindiCss2" x1="8.696%" x2="71.739%" y1="37.461%" y2="80.271%"><stop offset="7.822%" stopColor="#54c8f1"></stop><stop offset="57.292%" stopColor="#41a2ef"></stop><stop offset="100%" stopColor="#3386ee"></stop></linearGradient><linearGradient id="logosWindiCss3" x1="60.744%" x2="501.135%" y1="-308.636%" y2="225.788%"><stop offset="7.822%" stopColor="#54c8f1"></stop><stop offset="57.292%" stopColor="#41a2ef"></stop><stop offset="100%" stopColor="#3386ee"></stop></linearGradient></defs><path fill="url(#logosWindiCss0)" d="M133.784 48.922C133.784 21.945 111.84 0 84.863 0c-28.43 0-45.428 21.316-45.428 41.933h27.956c0-5.8 5.423-13.978 17.472-13.978c11.56 0 20.966 9.407 20.966 20.967c0 11.56-8.438 20.966-29.715 20.966H0v27.955h76.114c35.911 0 57.67-21.944 57.67-48.921m0 0C133.784 21.945 111.84 0 84.863 0c-28.43 0-45.428 21.316-45.428 41.933h27.956c0-5.8 5.423-13.978 17.472-13.978c11.56 0 20.966 9.407 20.966 20.967c0 11.56-8.438 20.966-29.715 20.966H0v27.955h76.114c35.911 0 57.67-21.944 57.67-48.921"></path><path fill="url(#logosWindiCss1)" d="M195.803 229.339c0 26.978-21.945 48.922-48.922 48.922c-28.43 0-45.427-21.315-45.427-41.933h27.955c0 5.8 5.423 13.979 17.472 13.979c11.56 0 20.967-9.408 20.967-20.968s-10.63-20.966-29.716-20.966H53.671v-27.956h84.461c35.912 0 57.671 21.945 57.671 48.922m0 0c0 26.978-21.945 48.922-48.922 48.922c-28.43 0-45.427-21.315-45.427-41.933h27.955c0 5.8 5.423 13.979 17.472 13.979c11.56 0 20.967-9.408 20.967-20.968s-10.63-20.966-29.716-20.966H53.671v-27.956h84.461c35.912 0 57.671 21.945 57.671 48.922"></path><path fill="url(#logosWindiCss2)" d="M203.13 43.13c-30.834 0-52.585 23.45-52.585 54.284h24.76c0-15.327 11.13-26.457 27.825-26.457c16.696 0 25.044 11.13 25.044 26.457s-10.842 27.955-40.348 27.955H0v27.956h192c43.695 0 64-28.085 64-55.911c0-30.835-20.87-54.284-52.87-54.284"></path><path fill="url(#logosWindiCss3)" d="M36.647 180.417H0v28.19h36.647z"></path></svg>
